G04 #@! TF.FileFunction,Paste,Top*
%FSLAX46Y46*%
G04 Gerber Fmt 4.6, Leading zero omitted, Abs format (unit mm)*
G04 Created by KiCad (PCBNEW 4.0.7) date 12/12/18 10:49:55*
%MOMM*%
%LPD*%
G01*
G04 APERTURE LIST*
%ADD10C,0.100000*%
%ADD11R,2.000000X3.800000*%
%ADD12R,2.000000X1.500000*%
%ADD13R,0.500000X0.900000*%
%ADD14R,0.900000X0.500000*%
%ADD15R,0.500000X0.500000*%
%ADD16R,1.400000X1.050000*%
%ADD17R,0.279400X0.900000*%
%ADD18R,0.900000X0.279400*%
%ADD19R,2.600000X2.600000*%
%ADD20R,0.800000X0.800000*%
%ADD21R,0.800000X0.750000*%
%ADD22R,0.750000X0.800000*%
%ADD23R,0.400000X1.350000*%
%ADD24R,0.800000X1.300000*%
%ADD25R,1.300000X0.800000*%
%ADD26R,1.778000X1.778000*%
%ADD27C,1.778000*%
G04 APERTURE END LIST*
D10*
D11*
X211328400Y-85648800D03*
D12*
X205028400Y-85648800D03*
X205028400Y-87948800D03*
X205028400Y-83348800D03*
D13*
X205880400Y-90297000D03*
X204380400Y-90297000D03*
D14*
X212369400Y-91960000D03*
X212369400Y-93460000D03*
D15*
X167292200Y-88011000D03*
X165092200Y-88011000D03*
D14*
X210845400Y-93460000D03*
X210845400Y-91960000D03*
D13*
X167018400Y-89890600D03*
X165518400Y-89890600D03*
D16*
X160175600Y-101515000D03*
X156575600Y-101515000D03*
X160175600Y-102955000D03*
X156575600Y-102955000D03*
X165712800Y-101515000D03*
X162112800Y-101515000D03*
X165712800Y-102955000D03*
X162112800Y-102955000D03*
D17*
X206937800Y-91650600D03*
X206437800Y-91650600D03*
X207937800Y-95750600D03*
X205937800Y-95750600D03*
X206437800Y-95750600D03*
X206937800Y-95750600D03*
X207437800Y-95750600D03*
X208437800Y-95750600D03*
D18*
X209237800Y-94950600D03*
X209237800Y-94450600D03*
X209237800Y-93950600D03*
X209237800Y-93450600D03*
X209237800Y-92950600D03*
X209237800Y-92450600D03*
D17*
X208437800Y-91650600D03*
X207937800Y-91650600D03*
X207437800Y-91650600D03*
D19*
X207187800Y-93700600D03*
D18*
X205137800Y-94950600D03*
X205137800Y-94450600D03*
X205137800Y-93950600D03*
X205137800Y-93450600D03*
X205137800Y-92950600D03*
X205137800Y-92450600D03*
D17*
X205937800Y-91650600D03*
D20*
X175894900Y-77343000D03*
X174294900Y-77343000D03*
D13*
X177456400Y-77343000D03*
X178956400Y-77343000D03*
D21*
X194323400Y-77089000D03*
X192823400Y-77089000D03*
D22*
X210718400Y-96889000D03*
X210718400Y-95389000D03*
D21*
X160033400Y-82169000D03*
X158533400Y-82169000D03*
D23*
X188588400Y-100951500D03*
X189238400Y-100951500D03*
X189888400Y-100951500D03*
X190538400Y-100951500D03*
X191188400Y-100951500D03*
X201188400Y-100951500D03*
X201838400Y-100951500D03*
X202488400Y-100951500D03*
X203138400Y-100951500D03*
X203788400Y-100951500D03*
D24*
X170942000Y-97155000D03*
X172212000Y-97155000D03*
X173482000Y-97155000D03*
X174752000Y-97155000D03*
X176022000Y-97155000D03*
X177292000Y-97155000D03*
X178562000Y-97155000D03*
X179832000Y-97155000D03*
X181102000Y-97155000D03*
X182372000Y-97155000D03*
X183642000Y-97155000D03*
X184912000Y-97155000D03*
X186182000Y-97155000D03*
X187452000Y-97155000D03*
X188722000Y-97155000D03*
X189992000Y-97155000D03*
X191262000Y-97155000D03*
X192532000Y-97155000D03*
X193802000Y-97155000D03*
X195072000Y-97155000D03*
X196342000Y-97155000D03*
X197612000Y-97155000D03*
X198882000Y-97155000D03*
X200152000Y-97155000D03*
X201422000Y-97155000D03*
X201422000Y-79375000D03*
X200152000Y-79375000D03*
X198882000Y-79375000D03*
X197612000Y-79375000D03*
X196342000Y-79375000D03*
X195072000Y-79375000D03*
X193802000Y-79375000D03*
X192532000Y-79375000D03*
X191262000Y-79375000D03*
X189992000Y-79375000D03*
X188722000Y-79375000D03*
X187452000Y-79375000D03*
X186182000Y-79375000D03*
X184912000Y-79375000D03*
X183642000Y-79375000D03*
X182372000Y-79375000D03*
X181102000Y-79375000D03*
X179832000Y-79375000D03*
X178562000Y-79375000D03*
X177292000Y-79375000D03*
X176022000Y-79375000D03*
X174752000Y-79375000D03*
X173482000Y-79375000D03*
X172212000Y-79375000D03*
X170942000Y-79375000D03*
D25*
X169672000Y-80645000D03*
X169672000Y-81915000D03*
X169672000Y-83185000D03*
X169672000Y-84455000D03*
X169672000Y-85725000D03*
X169672000Y-86995000D03*
X169672000Y-88265000D03*
X169672000Y-89535000D03*
X169672000Y-90805000D03*
X169672000Y-92075000D03*
X169672000Y-93345000D03*
X169672000Y-94615000D03*
X169672000Y-95885000D03*
D13*
X189216400Y-77089000D03*
X190716400Y-77089000D03*
X170471400Y-77851000D03*
X171971400Y-77851000D03*
D26*
X156870400Y-79773780D03*
D27*
X156870400Y-77233780D03*
X159410400Y-79773780D03*
X159410400Y-77233780D03*
X161950400Y-79773780D03*
X161950400Y-77233780D03*
X164490400Y-79773780D03*
X164490400Y-77233780D03*
X167030400Y-79773780D03*
X167030400Y-77233780D03*
X197510400Y-77233780D03*
X200050400Y-77233780D03*
X202590400Y-77233780D03*
X205130400Y-77233780D03*
M02*
