G04 #@! TF.FileFunction,Legend,Bot*
%FSLAX46Y46*%
G04 Gerber Fmt 4.6, Leading zero omitted, Abs format (unit mm)*
G04 Created by KiCad (PCBNEW 4.0.7) date 12/12/18 10:49:55*
%MOMM*%
%LPD*%
G01*
G04 APERTURE LIST*
%ADD10C,0.100000*%
%ADD11C,0.300000*%
%ADD12C,0.200000*%
%ADD13C,0.250000*%
%ADD14C,0.010000*%
%ADD15C,0.120000*%
%ADD16C,0.150000*%
G04 APERTURE END LIST*
D10*
D11*
X187403709Y-76951643D02*
X186475138Y-76951643D01*
X187032280Y-76295929D02*
X187403709Y-78263071D01*
X186598947Y-77607357D02*
X187527518Y-77607357D01*
X186970376Y-78263071D02*
X186598947Y-76295929D01*
X186165614Y-76441643D02*
X185298947Y-76441643D01*
X185856090Y-77971643D01*
X184246566Y-76441643D02*
X184494185Y-76441643D01*
X184617995Y-76514500D01*
X184679900Y-76587357D01*
X184803709Y-76805929D01*
X184865614Y-77097357D01*
X184865614Y-77680214D01*
X184803709Y-77825929D01*
X184741804Y-77898786D01*
X184617995Y-77971643D01*
X184370376Y-77971643D01*
X184246566Y-77898786D01*
X184184662Y-77825929D01*
X184122757Y-77680214D01*
X184122757Y-77315929D01*
X184184662Y-77170214D01*
X184246566Y-77097357D01*
X184370376Y-77024500D01*
X184617995Y-77024500D01*
X184741804Y-77097357D01*
X184803709Y-77170214D01*
X184865614Y-77315929D01*
X183689424Y-76441643D02*
X182822757Y-77971643D01*
X182822757Y-76441643D02*
X183689424Y-77971643D01*
X182141805Y-77097357D02*
X182265614Y-77024500D01*
X182327519Y-76951643D01*
X182389424Y-76805929D01*
X182389424Y-76733071D01*
X182327519Y-76587357D01*
X182265614Y-76514500D01*
X182141805Y-76441643D01*
X181894186Y-76441643D01*
X181770376Y-76514500D01*
X181708472Y-76587357D01*
X181646567Y-76733071D01*
X181646567Y-76805929D01*
X181708472Y-76951643D01*
X181770376Y-77024500D01*
X181894186Y-77097357D01*
X182141805Y-77097357D01*
X182265614Y-77170214D01*
X182327519Y-77243071D01*
X182389424Y-77388786D01*
X182389424Y-77680214D01*
X182327519Y-77825929D01*
X182265614Y-77898786D01*
X182141805Y-77971643D01*
X181894186Y-77971643D01*
X181770376Y-77898786D01*
X181708472Y-77825929D01*
X181646567Y-77680214D01*
X181646567Y-77388786D01*
X181708472Y-77243071D01*
X181770376Y-77170214D01*
X181894186Y-77097357D01*
X180656091Y-77170214D02*
X180470377Y-77243071D01*
X180408472Y-77315929D01*
X180346567Y-77461643D01*
X180346567Y-77680214D01*
X180408472Y-77825929D01*
X180470377Y-77898786D01*
X180594186Y-77971643D01*
X181089424Y-77971643D01*
X181089424Y-76441643D01*
X180656091Y-76441643D01*
X180532281Y-76514500D01*
X180470377Y-76587357D01*
X180408472Y-76733071D01*
X180408472Y-76878786D01*
X180470377Y-77024500D01*
X180532281Y-77097357D01*
X180656091Y-77170214D01*
X181089424Y-77170214D01*
X179913234Y-76441643D02*
X179108472Y-76441643D01*
X179541805Y-77024500D01*
X179356091Y-77024500D01*
X179232281Y-77097357D01*
X179170377Y-77170214D01*
X179108472Y-77315929D01*
X179108472Y-77680214D01*
X179170377Y-77825929D01*
X179232281Y-77898786D01*
X179356091Y-77971643D01*
X179727519Y-77971643D01*
X179851329Y-77898786D01*
X179913234Y-77825929D01*
X178737043Y-76441643D02*
X178303710Y-77971643D01*
X177870377Y-76441643D01*
X176756091Y-77971643D02*
X177498948Y-77971643D01*
X177127519Y-77971643D02*
X177127519Y-76441643D01*
X177251329Y-76660214D01*
X177375138Y-76805929D01*
X177498948Y-76878786D01*
D12*
X202891472Y-80271881D02*
X202891472Y-79271881D01*
X202320043Y-80271881D01*
X202320043Y-79271881D01*
X201272424Y-80271881D02*
X201605758Y-79795690D01*
X201843853Y-80271881D02*
X201843853Y-79271881D01*
X201462900Y-79271881D01*
X201367662Y-79319500D01*
X201320043Y-79367119D01*
X201272424Y-79462357D01*
X201272424Y-79605214D01*
X201320043Y-79700452D01*
X201367662Y-79748071D01*
X201462900Y-79795690D01*
X201843853Y-79795690D01*
X200891472Y-80224262D02*
X200748615Y-80271881D01*
X200510519Y-80271881D01*
X200415281Y-80224262D01*
X200367662Y-80176643D01*
X200320043Y-80081405D01*
X200320043Y-79986167D01*
X200367662Y-79890929D01*
X200415281Y-79843310D01*
X200510519Y-79795690D01*
X200700996Y-79748071D01*
X200796234Y-79700452D01*
X200843853Y-79652833D01*
X200891472Y-79557595D01*
X200891472Y-79462357D01*
X200843853Y-79367119D01*
X200796234Y-79319500D01*
X200700996Y-79271881D01*
X200462900Y-79271881D01*
X200320043Y-79319500D01*
X200034329Y-79271881D02*
X199462900Y-79271881D01*
X199748615Y-80271881D02*
X199748615Y-79271881D01*
X198034328Y-79748071D02*
X197891471Y-79795690D01*
X197843852Y-79843310D01*
X197796233Y-79938548D01*
X197796233Y-80081405D01*
X197843852Y-80176643D01*
X197891471Y-80224262D01*
X197986709Y-80271881D01*
X198367662Y-80271881D01*
X198367662Y-79271881D01*
X198034328Y-79271881D01*
X197939090Y-79319500D01*
X197891471Y-79367119D01*
X197843852Y-79462357D01*
X197843852Y-79557595D01*
X197891471Y-79652833D01*
X197939090Y-79700452D01*
X198034328Y-79748071D01*
X198367662Y-79748071D01*
X197177186Y-79271881D02*
X196986709Y-79271881D01*
X196891471Y-79319500D01*
X196796233Y-79414738D01*
X196748614Y-79605214D01*
X196748614Y-79938548D01*
X196796233Y-80129024D01*
X196891471Y-80224262D01*
X196986709Y-80271881D01*
X197177186Y-80271881D01*
X197272424Y-80224262D01*
X197367662Y-80129024D01*
X197415281Y-79938548D01*
X197415281Y-79605214D01*
X197367662Y-79414738D01*
X197272424Y-79319500D01*
X197177186Y-79271881D01*
X196129567Y-79271881D02*
X195939090Y-79271881D01*
X195843852Y-79319500D01*
X195748614Y-79414738D01*
X195700995Y-79605214D01*
X195700995Y-79938548D01*
X195748614Y-80129024D01*
X195843852Y-80224262D01*
X195939090Y-80271881D01*
X196129567Y-80271881D01*
X196224805Y-80224262D01*
X196320043Y-80129024D01*
X196367662Y-79938548D01*
X196367662Y-79605214D01*
X196320043Y-79414738D01*
X196224805Y-79319500D01*
X196129567Y-79271881D01*
X195415281Y-79271881D02*
X194843852Y-79271881D01*
X195129567Y-80271881D02*
X195129567Y-79271881D01*
X194320043Y-79271881D02*
X194224804Y-79271881D01*
X194129566Y-79319500D01*
X194081947Y-79367119D01*
X194034328Y-79462357D01*
X193986709Y-79652833D01*
X193986709Y-79890929D01*
X194034328Y-80081405D01*
X194081947Y-80176643D01*
X194129566Y-80224262D01*
X194224804Y-80271881D01*
X194320043Y-80271881D01*
X194415281Y-80224262D01*
X194462900Y-80176643D01*
X194510519Y-80081405D01*
X194558138Y-79890929D01*
X194558138Y-79652833D01*
X194510519Y-79462357D01*
X194462900Y-79367119D01*
X194415281Y-79319500D01*
X194320043Y-79271881D01*
D13*
X182174353Y-95654881D02*
X181602924Y-95654881D01*
X181888639Y-96654881D02*
X181888639Y-95654881D01*
X181507686Y-96750119D02*
X180745781Y-96750119D01*
X180507686Y-96654881D02*
X180507686Y-95654881D01*
X179936257Y-96654881D01*
X179936257Y-95654881D01*
X178841019Y-95654881D02*
X178269590Y-95654881D01*
X178555305Y-96654881D02*
X178555305Y-95654881D01*
X178174352Y-96750119D02*
X177412447Y-96750119D01*
X177174352Y-96654881D02*
X177174352Y-95654881D01*
X176793399Y-95654881D01*
X176698161Y-95702500D01*
X176650542Y-95750119D01*
X176602923Y-95845357D01*
X176602923Y-95988214D01*
X176650542Y-96083452D01*
X176698161Y-96131071D01*
X176793399Y-96178690D01*
X177174352Y-96178690D01*
X174841018Y-96654881D02*
X175174352Y-96178690D01*
X175412447Y-96654881D02*
X175412447Y-95654881D01*
X175031494Y-95654881D01*
X174936256Y-95702500D01*
X174888637Y-95750119D01*
X174841018Y-95845357D01*
X174841018Y-95988214D01*
X174888637Y-96083452D01*
X174936256Y-96131071D01*
X175031494Y-96178690D01*
X175412447Y-96178690D01*
X174650542Y-96750119D02*
X173888637Y-96750119D01*
X173650542Y-96654881D02*
X173650542Y-95654881D01*
X173079113Y-96654881D01*
X173079113Y-95654881D01*
X171269589Y-96654881D02*
X171602923Y-96178690D01*
X171841018Y-96654881D02*
X171841018Y-95654881D01*
X171460065Y-95654881D01*
X171364827Y-95702500D01*
X171317208Y-95750119D01*
X171269589Y-95845357D01*
X171269589Y-95988214D01*
X171317208Y-96083452D01*
X171364827Y-96131071D01*
X171460065Y-96178690D01*
X171841018Y-96178690D01*
X171079113Y-96750119D02*
X170317208Y-96750119D01*
X170079113Y-96654881D02*
X170079113Y-95654881D01*
X169698160Y-95654881D01*
X169602922Y-95702500D01*
X169555303Y-95750119D01*
X169507684Y-95845357D01*
X169507684Y-95988214D01*
X169555303Y-96083452D01*
X169602922Y-96131071D01*
X169698160Y-96178690D01*
X170079113Y-96178690D01*
X181341019Y-98559881D02*
X181674353Y-98083690D01*
X181912448Y-98559881D02*
X181912448Y-97559881D01*
X181531495Y-97559881D01*
X181436257Y-97607500D01*
X181388638Y-97655119D01*
X181341019Y-97750357D01*
X181341019Y-97893214D01*
X181388638Y-97988452D01*
X181436257Y-98036071D01*
X181531495Y-98083690D01*
X181912448Y-98083690D01*
X181007686Y-97559881D02*
X180341019Y-98559881D01*
X180341019Y-97559881D02*
X181007686Y-98559881D01*
X180007686Y-97655119D02*
X179960067Y-97607500D01*
X179864829Y-97559881D01*
X179626733Y-97559881D01*
X179531495Y-97607500D01*
X179483876Y-97655119D01*
X179436257Y-97750357D01*
X179436257Y-97845595D01*
X179483876Y-97988452D01*
X180055305Y-98559881D01*
X179436257Y-98559881D01*
X178388638Y-97559881D02*
X177817209Y-97559881D01*
X178102924Y-98559881D02*
X178102924Y-97559881D01*
X177579114Y-97559881D02*
X176912447Y-98559881D01*
X176912447Y-97559881D02*
X177579114Y-98559881D01*
X176579114Y-97655119D02*
X176531495Y-97607500D01*
X176436257Y-97559881D01*
X176198161Y-97559881D01*
X176102923Y-97607500D01*
X176055304Y-97655119D01*
X176007685Y-97750357D01*
X176007685Y-97845595D01*
X176055304Y-97988452D01*
X176626733Y-98559881D01*
X176007685Y-98559881D01*
X174293399Y-97607500D02*
X174388637Y-97559881D01*
X174531494Y-97559881D01*
X174674352Y-97607500D01*
X174769590Y-97702738D01*
X174817209Y-97797976D01*
X174864828Y-97988452D01*
X174864828Y-98131310D01*
X174817209Y-98321786D01*
X174769590Y-98417024D01*
X174674352Y-98512262D01*
X174531494Y-98559881D01*
X174436256Y-98559881D01*
X174293399Y-98512262D01*
X174245780Y-98464643D01*
X174245780Y-98131310D01*
X174436256Y-98131310D01*
X173817209Y-98559881D02*
X173817209Y-97559881D01*
X173245780Y-98559881D01*
X173245780Y-97559881D01*
X172769590Y-98559881D02*
X172769590Y-97559881D01*
X172531495Y-97559881D01*
X172388637Y-97607500D01*
X172293399Y-97702738D01*
X172245780Y-97797976D01*
X172198161Y-97988452D01*
X172198161Y-98131310D01*
X172245780Y-98321786D01*
X172293399Y-98417024D01*
X172388637Y-98512262D01*
X172531495Y-98559881D01*
X172769590Y-98559881D01*
X170531494Y-97559881D02*
X171007685Y-97559881D01*
X171055304Y-98036071D01*
X171007685Y-97988452D01*
X170912447Y-97940833D01*
X170674351Y-97940833D01*
X170579113Y-97988452D01*
X170531494Y-98036071D01*
X170483875Y-98131310D01*
X170483875Y-98369405D01*
X170531494Y-98464643D01*
X170579113Y-98512262D01*
X170674351Y-98559881D01*
X170912447Y-98559881D01*
X171007685Y-98512262D01*
X171055304Y-98464643D01*
X170198161Y-97559881D02*
X169864828Y-98559881D01*
X169531494Y-97559881D01*
D14*
G36*
X170784563Y-86240317D02*
X170699178Y-86242516D01*
X170637430Y-86246449D01*
X170610486Y-86250609D01*
X170571073Y-86261172D01*
X170571073Y-87479995D01*
X170848526Y-87470367D01*
X171126376Y-87470716D01*
X171383507Y-87493040D01*
X171627730Y-87538978D01*
X171866853Y-87610169D01*
X172108688Y-87708252D01*
X172208935Y-87755877D01*
X172448009Y-87887098D01*
X172663367Y-88034539D01*
X172865162Y-88205462D01*
X172943655Y-88281331D01*
X173151065Y-88513261D01*
X173330502Y-88765720D01*
X173481065Y-89037001D01*
X173601856Y-89325397D01*
X173691975Y-89629201D01*
X173718668Y-89751775D01*
X173734755Y-89863064D01*
X173745496Y-89999438D01*
X173750900Y-90151358D01*
X173750977Y-90309286D01*
X173745736Y-90463685D01*
X173735187Y-90605015D01*
X173719339Y-90723739D01*
X173717700Y-90732741D01*
X173643742Y-91035609D01*
X173538622Y-91324543D01*
X173404046Y-91597597D01*
X173241720Y-91852826D01*
X173053349Y-92088284D01*
X172840639Y-92302027D01*
X172605295Y-92492107D01*
X172349024Y-92656581D01*
X172073530Y-92793503D01*
X171830566Y-92885133D01*
X171693995Y-92926953D01*
X171568558Y-92958747D01*
X171445728Y-92981700D01*
X171316973Y-92996997D01*
X171173765Y-93005822D01*
X171007574Y-93009359D01*
X170934555Y-93009561D01*
X170571073Y-93009140D01*
X170571073Y-94223344D01*
X170610486Y-94233907D01*
X170644120Y-94237877D01*
X170706348Y-94240610D01*
X170790756Y-94242172D01*
X170890929Y-94242623D01*
X171000452Y-94242029D01*
X171112909Y-94240451D01*
X171221885Y-94237954D01*
X171320966Y-94234599D01*
X171403735Y-94230452D01*
X171463779Y-94225573D01*
X171464452Y-94225497D01*
X171614080Y-94203717D01*
X171783041Y-94171098D01*
X171958444Y-94130548D01*
X172127398Y-94084976D01*
X172234762Y-94051700D01*
X172585047Y-93917911D01*
X172917039Y-93755062D01*
X173229428Y-93564736D01*
X173520903Y-93348517D01*
X173790154Y-93107989D01*
X174035870Y-92844735D01*
X174256740Y-92560338D01*
X174451453Y-92256383D01*
X174618700Y-91934452D01*
X174757169Y-91596130D01*
X174865549Y-91243000D01*
X174942530Y-90876646D01*
X174960032Y-90759017D01*
X174971229Y-90646773D01*
X174978934Y-90509077D01*
X174983146Y-90355333D01*
X174983865Y-90194950D01*
X174981091Y-90037334D01*
X174974825Y-89891891D01*
X174965065Y-89768029D01*
X174960032Y-89725500D01*
X174892606Y-89351234D01*
X174792705Y-88989624D01*
X174660669Y-88641507D01*
X174496838Y-88307723D01*
X174301551Y-87989109D01*
X174197177Y-87842396D01*
X173961113Y-87554402D01*
X173701577Y-87291722D01*
X173420377Y-87055413D01*
X173119319Y-86846532D01*
X172800211Y-86666136D01*
X172464859Y-86515282D01*
X172115070Y-86395026D01*
X171752651Y-86306426D01*
X171500004Y-86264811D01*
X171430521Y-86257763D01*
X171339335Y-86251725D01*
X171232924Y-86246802D01*
X171117764Y-86243096D01*
X171000333Y-86240711D01*
X170887107Y-86239750D01*
X170784563Y-86240317D01*
X170784563Y-86240317D01*
G37*
X170784563Y-86240317D02*
X170699178Y-86242516D01*
X170637430Y-86246449D01*
X170610486Y-86250609D01*
X170571073Y-86261172D01*
X170571073Y-87479995D01*
X170848526Y-87470367D01*
X171126376Y-87470716D01*
X171383507Y-87493040D01*
X171627730Y-87538978D01*
X171866853Y-87610169D01*
X172108688Y-87708252D01*
X172208935Y-87755877D01*
X172448009Y-87887098D01*
X172663367Y-88034539D01*
X172865162Y-88205462D01*
X172943655Y-88281331D01*
X173151065Y-88513261D01*
X173330502Y-88765720D01*
X173481065Y-89037001D01*
X173601856Y-89325397D01*
X173691975Y-89629201D01*
X173718668Y-89751775D01*
X173734755Y-89863064D01*
X173745496Y-89999438D01*
X173750900Y-90151358D01*
X173750977Y-90309286D01*
X173745736Y-90463685D01*
X173735187Y-90605015D01*
X173719339Y-90723739D01*
X173717700Y-90732741D01*
X173643742Y-91035609D01*
X173538622Y-91324543D01*
X173404046Y-91597597D01*
X173241720Y-91852826D01*
X173053349Y-92088284D01*
X172840639Y-92302027D01*
X172605295Y-92492107D01*
X172349024Y-92656581D01*
X172073530Y-92793503D01*
X171830566Y-92885133D01*
X171693995Y-92926953D01*
X171568558Y-92958747D01*
X171445728Y-92981700D01*
X171316973Y-92996997D01*
X171173765Y-93005822D01*
X171007574Y-93009359D01*
X170934555Y-93009561D01*
X170571073Y-93009140D01*
X170571073Y-94223344D01*
X170610486Y-94233907D01*
X170644120Y-94237877D01*
X170706348Y-94240610D01*
X170790756Y-94242172D01*
X170890929Y-94242623D01*
X171000452Y-94242029D01*
X171112909Y-94240451D01*
X171221885Y-94237954D01*
X171320966Y-94234599D01*
X171403735Y-94230452D01*
X171463779Y-94225573D01*
X171464452Y-94225497D01*
X171614080Y-94203717D01*
X171783041Y-94171098D01*
X171958444Y-94130548D01*
X172127398Y-94084976D01*
X172234762Y-94051700D01*
X172585047Y-93917911D01*
X172917039Y-93755062D01*
X173229428Y-93564736D01*
X173520903Y-93348517D01*
X173790154Y-93107989D01*
X174035870Y-92844735D01*
X174256740Y-92560338D01*
X174451453Y-92256383D01*
X174618700Y-91934452D01*
X174757169Y-91596130D01*
X174865549Y-91243000D01*
X174942530Y-90876646D01*
X174960032Y-90759017D01*
X174971229Y-90646773D01*
X174978934Y-90509077D01*
X174983146Y-90355333D01*
X174983865Y-90194950D01*
X174981091Y-90037334D01*
X174974825Y-89891891D01*
X174965065Y-89768029D01*
X174960032Y-89725500D01*
X174892606Y-89351234D01*
X174792705Y-88989624D01*
X174660669Y-88641507D01*
X174496838Y-88307723D01*
X174301551Y-87989109D01*
X174197177Y-87842396D01*
X173961113Y-87554402D01*
X173701577Y-87291722D01*
X173420377Y-87055413D01*
X173119319Y-86846532D01*
X172800211Y-86666136D01*
X172464859Y-86515282D01*
X172115070Y-86395026D01*
X171752651Y-86306426D01*
X171500004Y-86264811D01*
X171430521Y-86257763D01*
X171339335Y-86251725D01*
X171232924Y-86246802D01*
X171117764Y-86243096D01*
X171000333Y-86240711D01*
X170887107Y-86239750D01*
X170784563Y-86240317D01*
G36*
X163774382Y-86857051D02*
X163774380Y-87474534D01*
X164164140Y-87474917D01*
X164299170Y-87475480D01*
X164405968Y-87477185D01*
X164491331Y-87480504D01*
X164562055Y-87485908D01*
X164624937Y-87493870D01*
X164686773Y-87504860D01*
X164731661Y-87514298D01*
X165036001Y-87598140D01*
X165326407Y-87712357D01*
X165600544Y-87855360D01*
X165856078Y-88025559D01*
X166090676Y-88221364D01*
X166302004Y-88441187D01*
X166487727Y-88683436D01*
X166520352Y-88732522D01*
X166588941Y-88847660D01*
X166658988Y-88981952D01*
X166726544Y-89126344D01*
X166787659Y-89271781D01*
X166838383Y-89409209D01*
X166874766Y-89529573D01*
X166882835Y-89563465D01*
X166895236Y-89620396D01*
X164562659Y-89620396D01*
X164562659Y-90864120D01*
X166895236Y-90864120D01*
X166882835Y-90921051D01*
X166849652Y-91042033D01*
X166800013Y-91182205D01*
X166737999Y-91332373D01*
X166667692Y-91483343D01*
X166593173Y-91625923D01*
X166518523Y-91750918D01*
X166506001Y-91769923D01*
X166315667Y-92023458D01*
X166102218Y-92250996D01*
X165866975Y-92451648D01*
X165611260Y-92624521D01*
X165336393Y-92768727D01*
X165043695Y-92883374D01*
X164734487Y-92967572D01*
X164726938Y-92969197D01*
X164657312Y-92983235D01*
X164593196Y-92993683D01*
X164527452Y-93001052D01*
X164452940Y-93005851D01*
X164362519Y-93008588D01*
X164249052Y-93009773D01*
X164155383Y-93009951D01*
X163774383Y-93009920D01*
X163774383Y-94244948D01*
X164155383Y-94242675D01*
X164277171Y-94241281D01*
X164395989Y-94238708D01*
X164504215Y-94235211D01*
X164594228Y-94231048D01*
X164658406Y-94226472D01*
X164667762Y-94225497D01*
X164966235Y-94177569D01*
X165273237Y-94101805D01*
X165580386Y-94001048D01*
X165879296Y-93878143D01*
X166161584Y-93735935D01*
X166235474Y-93693652D01*
X166452024Y-93553997D01*
X166671754Y-93389643D01*
X166885983Y-93208084D01*
X167086030Y-93016815D01*
X167263213Y-92823327D01*
X167311606Y-92764732D01*
X167525216Y-92471310D01*
X167712350Y-92156649D01*
X167871674Y-91823908D01*
X168001855Y-91476247D01*
X168101562Y-91116823D01*
X168169459Y-90748795D01*
X168172829Y-90723982D01*
X168182030Y-90629088D01*
X168188563Y-90508981D01*
X168192424Y-90372433D01*
X168193612Y-90228215D01*
X168192123Y-90085098D01*
X168187956Y-89951854D01*
X168181107Y-89837254D01*
X168173103Y-89760534D01*
X168104307Y-89383263D01*
X168004691Y-89018410D01*
X167875162Y-88668116D01*
X167716623Y-88334524D01*
X167529979Y-88019775D01*
X167316134Y-87726013D01*
X167311606Y-87720391D01*
X167072881Y-87451647D01*
X166809189Y-87204741D01*
X166523770Y-86981701D01*
X166219865Y-86784551D01*
X165900715Y-86615316D01*
X165569561Y-86476022D01*
X165229642Y-86368695D01*
X165096818Y-86336257D01*
X164932743Y-86302052D01*
X164780242Y-86276435D01*
X164629528Y-86258413D01*
X164470811Y-86246993D01*
X164294301Y-86241182D01*
X164146624Y-86239910D01*
X163774383Y-86239569D01*
X163774382Y-86857051D01*
X163774382Y-86857051D01*
G37*
X163774382Y-86857051D02*
X163774380Y-87474534D01*
X164164140Y-87474917D01*
X164299170Y-87475480D01*
X164405968Y-87477185D01*
X164491331Y-87480504D01*
X164562055Y-87485908D01*
X164624937Y-87493870D01*
X164686773Y-87504860D01*
X164731661Y-87514298D01*
X165036001Y-87598140D01*
X165326407Y-87712357D01*
X165600544Y-87855360D01*
X165856078Y-88025559D01*
X166090676Y-88221364D01*
X166302004Y-88441187D01*
X166487727Y-88683436D01*
X166520352Y-88732522D01*
X166588941Y-88847660D01*
X166658988Y-88981952D01*
X166726544Y-89126344D01*
X166787659Y-89271781D01*
X166838383Y-89409209D01*
X166874766Y-89529573D01*
X166882835Y-89563465D01*
X166895236Y-89620396D01*
X164562659Y-89620396D01*
X164562659Y-90864120D01*
X166895236Y-90864120D01*
X166882835Y-90921051D01*
X166849652Y-91042033D01*
X166800013Y-91182205D01*
X166737999Y-91332373D01*
X166667692Y-91483343D01*
X166593173Y-91625923D01*
X166518523Y-91750918D01*
X166506001Y-91769923D01*
X166315667Y-92023458D01*
X166102218Y-92250996D01*
X165866975Y-92451648D01*
X165611260Y-92624521D01*
X165336393Y-92768727D01*
X165043695Y-92883374D01*
X164734487Y-92967572D01*
X164726938Y-92969197D01*
X164657312Y-92983235D01*
X164593196Y-92993683D01*
X164527452Y-93001052D01*
X164452940Y-93005851D01*
X164362519Y-93008588D01*
X164249052Y-93009773D01*
X164155383Y-93009951D01*
X163774383Y-93009920D01*
X163774383Y-94244948D01*
X164155383Y-94242675D01*
X164277171Y-94241281D01*
X164395989Y-94238708D01*
X164504215Y-94235211D01*
X164594228Y-94231048D01*
X164658406Y-94226472D01*
X164667762Y-94225497D01*
X164966235Y-94177569D01*
X165273237Y-94101805D01*
X165580386Y-94001048D01*
X165879296Y-93878143D01*
X166161584Y-93735935D01*
X166235474Y-93693652D01*
X166452024Y-93553997D01*
X166671754Y-93389643D01*
X166885983Y-93208084D01*
X167086030Y-93016815D01*
X167263213Y-92823327D01*
X167311606Y-92764732D01*
X167525216Y-92471310D01*
X167712350Y-92156649D01*
X167871674Y-91823908D01*
X168001855Y-91476247D01*
X168101562Y-91116823D01*
X168169459Y-90748795D01*
X168172829Y-90723982D01*
X168182030Y-90629088D01*
X168188563Y-90508981D01*
X168192424Y-90372433D01*
X168193612Y-90228215D01*
X168192123Y-90085098D01*
X168187956Y-89951854D01*
X168181107Y-89837254D01*
X168173103Y-89760534D01*
X168104307Y-89383263D01*
X168004691Y-89018410D01*
X167875162Y-88668116D01*
X167716623Y-88334524D01*
X167529979Y-88019775D01*
X167316134Y-87726013D01*
X167311606Y-87720391D01*
X167072881Y-87451647D01*
X166809189Y-87204741D01*
X166523770Y-86981701D01*
X166219865Y-86784551D01*
X165900715Y-86615316D01*
X165569561Y-86476022D01*
X165229642Y-86368695D01*
X165096818Y-86336257D01*
X164932743Y-86302052D01*
X164780242Y-86276435D01*
X164629528Y-86258413D01*
X164470811Y-86246993D01*
X164294301Y-86241182D01*
X164146624Y-86239910D01*
X163774383Y-86239569D01*
X163774382Y-86857051D01*
G36*
X193628500Y-83421886D02*
X193093209Y-83505401D01*
X192930462Y-83541348D01*
X192392756Y-83695393D01*
X191872889Y-83897912D01*
X191374726Y-84146755D01*
X190902129Y-84439773D01*
X190458961Y-84774816D01*
X190060616Y-85138172D01*
X189975736Y-85225945D01*
X189880472Y-85329147D01*
X189781279Y-85440216D01*
X189684609Y-85551588D01*
X189596915Y-85655702D01*
X189524650Y-85744994D01*
X189474267Y-85811902D01*
X189452219Y-85848864D01*
X189451756Y-85851715D01*
X189471910Y-85873167D01*
X189522900Y-85913385D01*
X189564204Y-85943041D01*
X189623359Y-85985371D01*
X189714826Y-86052273D01*
X189828688Y-86136428D01*
X189955028Y-86230517D01*
X190039247Y-86293613D01*
X190159467Y-86383054D01*
X190265306Y-86460178D01*
X190349455Y-86519790D01*
X190404603Y-86556692D01*
X190422893Y-86566372D01*
X190446511Y-86547115D01*
X190496589Y-86494434D01*
X190566203Y-86415964D01*
X190648428Y-86319335D01*
X190664345Y-86300228D01*
X190987972Y-85951230D01*
X191347450Y-85638133D01*
X191737998Y-85362937D01*
X192154833Y-85127644D01*
X192593175Y-84934255D01*
X193048241Y-84784771D01*
X193515250Y-84681192D01*
X193989421Y-84625520D01*
X194465972Y-84619756D01*
X194651825Y-84631500D01*
X195155106Y-84699677D01*
X195639055Y-84815842D01*
X196101221Y-84977836D01*
X196539154Y-85183495D01*
X196950403Y-85430658D01*
X197332516Y-85717163D01*
X197683044Y-86040847D01*
X197999535Y-86399548D01*
X198279538Y-86791106D01*
X198520603Y-87213356D01*
X198720278Y-87664138D01*
X198876114Y-88141289D01*
X198942832Y-88416914D01*
X198966703Y-88533443D01*
X198984582Y-88635257D01*
X198997343Y-88733470D01*
X199005859Y-88839198D01*
X199011004Y-88963556D01*
X199013653Y-89117659D01*
X199014679Y-89312622D01*
X199014719Y-89331271D01*
X199014070Y-89550450D01*
X199010759Y-89727133D01*
X199004193Y-89871702D01*
X198993782Y-89994536D01*
X198978934Y-90106017D01*
X198966507Y-90177938D01*
X198849810Y-90663944D01*
X198686015Y-91130313D01*
X198477570Y-91573985D01*
X198226925Y-91991899D01*
X197936527Y-92380997D01*
X197608825Y-92738217D01*
X197246268Y-93060500D01*
X196851304Y-93344785D01*
X196426381Y-93588014D01*
X196127595Y-93725874D01*
X195654239Y-93896248D01*
X195171464Y-94014734D01*
X194681087Y-94081154D01*
X194184928Y-94095329D01*
X193684804Y-94057082D01*
X193336218Y-93999602D01*
X192877145Y-93881078D01*
X192425016Y-93712722D01*
X191986597Y-93497617D01*
X191568658Y-93238847D01*
X191400318Y-93117477D01*
X191236664Y-92984406D01*
X191058939Y-92823401D01*
X190880748Y-92647992D01*
X190715695Y-92471707D01*
X190577385Y-92308075D01*
X190547906Y-92269834D01*
X190480494Y-92183228D01*
X190423531Y-92115496D01*
X190385119Y-92076002D01*
X190374796Y-92069709D01*
X190346357Y-92084525D01*
X190283775Y-92125193D01*
X190195407Y-92186043D01*
X190089614Y-92261405D01*
X190052992Y-92287990D01*
X189924812Y-92380706D01*
X189793500Y-92474394D01*
X189673992Y-92558471D01*
X189581228Y-92622356D01*
X189576811Y-92625334D01*
X189494299Y-92683610D01*
X189432106Y-92732728D01*
X189400864Y-92764122D01*
X189399113Y-92768499D01*
X189416058Y-92812171D01*
X189465245Y-92887175D01*
X189541490Y-92987436D01*
X189639608Y-93106876D01*
X189754417Y-93239417D01*
X189880732Y-93378982D01*
X190013370Y-93519495D01*
X190147146Y-93654879D01*
X190195205Y-93701788D01*
X190590049Y-94046922D01*
X191021285Y-94356404D01*
X191484168Y-94627866D01*
X191973953Y-94858940D01*
X192485894Y-95047258D01*
X193015246Y-95190453D01*
X193287650Y-95244862D01*
X193431367Y-95267686D01*
X193575478Y-95284720D01*
X193732446Y-95296882D01*
X193914736Y-95305087D01*
X194134813Y-95310254D01*
X194187233Y-95311043D01*
X194361482Y-95312894D01*
X194523082Y-95313551D01*
X194662650Y-95313059D01*
X194770799Y-95311464D01*
X194838145Y-95308810D01*
X194848691Y-95307850D01*
X195344610Y-95233449D01*
X195805017Y-95131995D01*
X196241704Y-95000151D01*
X196666462Y-94834585D01*
X196899212Y-94727967D01*
X197385162Y-94464948D01*
X197841849Y-94159266D01*
X198266888Y-93813843D01*
X198657890Y-93431600D01*
X199012471Y-93015458D01*
X199328242Y-92568338D01*
X199602818Y-92093161D01*
X199833810Y-91592850D01*
X200018834Y-91070324D01*
X200087117Y-90826167D01*
X200106641Y-90747165D01*
X200124982Y-90665123D01*
X200143852Y-90570898D01*
X200164964Y-90455348D01*
X200190032Y-90309329D01*
X200220768Y-90123700D01*
X200234590Y-90039031D01*
X200248589Y-89953042D01*
X202627441Y-89953042D01*
X202627441Y-94284168D01*
X203229941Y-94685063D01*
X203388756Y-94790285D01*
X203533285Y-94885181D01*
X203657668Y-94965971D01*
X203756040Y-95028874D01*
X203822540Y-95070111D01*
X203851306Y-95085903D01*
X203851712Y-95085959D01*
X203853543Y-95059900D01*
X203855326Y-94983320D01*
X203857054Y-94858617D01*
X203858719Y-94688187D01*
X203860313Y-94474425D01*
X203861827Y-94219728D01*
X203863255Y-93926493D01*
X203864587Y-93597117D01*
X203865816Y-93233994D01*
X203866935Y-92839522D01*
X203867934Y-92416097D01*
X203868806Y-91966116D01*
X203869543Y-91491975D01*
X203870137Y-90996070D01*
X203870580Y-90480797D01*
X203870864Y-89948554D01*
X203870980Y-89401736D01*
X203870983Y-89304813D01*
X203870983Y-83523667D01*
X201329422Y-83523667D01*
X200891640Y-83523790D01*
X200504142Y-83524181D01*
X200164295Y-83524876D01*
X199869467Y-83525909D01*
X199617025Y-83527314D01*
X199404336Y-83529126D01*
X199228769Y-83531379D01*
X199087690Y-83534109D01*
X198978467Y-83537348D01*
X198898468Y-83541133D01*
X198845060Y-83545497D01*
X198815610Y-83550476D01*
X198807486Y-83556102D01*
X198807768Y-83556740D01*
X198828406Y-83585967D01*
X198876518Y-83651629D01*
X198947761Y-83747878D01*
X199037793Y-83868863D01*
X199142272Y-84008738D01*
X199256854Y-84161652D01*
X199259578Y-84165281D01*
X199691481Y-84740750D01*
X202627441Y-84740750D01*
X202627441Y-88735959D01*
X201439647Y-88735959D01*
X201153617Y-88736053D01*
X200916026Y-88735966D01*
X200722398Y-88735144D01*
X200568256Y-88733033D01*
X200449123Y-88729079D01*
X200360525Y-88722729D01*
X200297983Y-88713427D01*
X200257021Y-88700620D01*
X200233164Y-88683755D01*
X200221935Y-88662276D01*
X200218858Y-88635631D01*
X200219455Y-88603265D01*
X200219733Y-88584983D01*
X200212220Y-88499317D01*
X200191325Y-88373657D01*
X200159517Y-88218500D01*
X200119265Y-88044340D01*
X200073039Y-87861672D01*
X200023306Y-87680990D01*
X199972535Y-87512790D01*
X199954426Y-87457153D01*
X199755546Y-86942787D01*
X199510258Y-86451224D01*
X199221213Y-85985436D01*
X198891062Y-85548398D01*
X198522458Y-85143082D01*
X198118053Y-84772461D01*
X197680497Y-84439508D01*
X197212443Y-84147195D01*
X196823907Y-83947448D01*
X196320677Y-83740491D01*
X195798408Y-83580518D01*
X195262577Y-83468099D01*
X194718663Y-83403807D01*
X194172144Y-83388212D01*
X193628500Y-83421886D01*
X193628500Y-83421886D01*
G37*
X193628500Y-83421886D02*
X193093209Y-83505401D01*
X192930462Y-83541348D01*
X192392756Y-83695393D01*
X191872889Y-83897912D01*
X191374726Y-84146755D01*
X190902129Y-84439773D01*
X190458961Y-84774816D01*
X190060616Y-85138172D01*
X189975736Y-85225945D01*
X189880472Y-85329147D01*
X189781279Y-85440216D01*
X189684609Y-85551588D01*
X189596915Y-85655702D01*
X189524650Y-85744994D01*
X189474267Y-85811902D01*
X189452219Y-85848864D01*
X189451756Y-85851715D01*
X189471910Y-85873167D01*
X189522900Y-85913385D01*
X189564204Y-85943041D01*
X189623359Y-85985371D01*
X189714826Y-86052273D01*
X189828688Y-86136428D01*
X189955028Y-86230517D01*
X190039247Y-86293613D01*
X190159467Y-86383054D01*
X190265306Y-86460178D01*
X190349455Y-86519790D01*
X190404603Y-86556692D01*
X190422893Y-86566372D01*
X190446511Y-86547115D01*
X190496589Y-86494434D01*
X190566203Y-86415964D01*
X190648428Y-86319335D01*
X190664345Y-86300228D01*
X190987972Y-85951230D01*
X191347450Y-85638133D01*
X191737998Y-85362937D01*
X192154833Y-85127644D01*
X192593175Y-84934255D01*
X193048241Y-84784771D01*
X193515250Y-84681192D01*
X193989421Y-84625520D01*
X194465972Y-84619756D01*
X194651825Y-84631500D01*
X195155106Y-84699677D01*
X195639055Y-84815842D01*
X196101221Y-84977836D01*
X196539154Y-85183495D01*
X196950403Y-85430658D01*
X197332516Y-85717163D01*
X197683044Y-86040847D01*
X197999535Y-86399548D01*
X198279538Y-86791106D01*
X198520603Y-87213356D01*
X198720278Y-87664138D01*
X198876114Y-88141289D01*
X198942832Y-88416914D01*
X198966703Y-88533443D01*
X198984582Y-88635257D01*
X198997343Y-88733470D01*
X199005859Y-88839198D01*
X199011004Y-88963556D01*
X199013653Y-89117659D01*
X199014679Y-89312622D01*
X199014719Y-89331271D01*
X199014070Y-89550450D01*
X199010759Y-89727133D01*
X199004193Y-89871702D01*
X198993782Y-89994536D01*
X198978934Y-90106017D01*
X198966507Y-90177938D01*
X198849810Y-90663944D01*
X198686015Y-91130313D01*
X198477570Y-91573985D01*
X198226925Y-91991899D01*
X197936527Y-92380997D01*
X197608825Y-92738217D01*
X197246268Y-93060500D01*
X196851304Y-93344785D01*
X196426381Y-93588014D01*
X196127595Y-93725874D01*
X195654239Y-93896248D01*
X195171464Y-94014734D01*
X194681087Y-94081154D01*
X194184928Y-94095329D01*
X193684804Y-94057082D01*
X193336218Y-93999602D01*
X192877145Y-93881078D01*
X192425016Y-93712722D01*
X191986597Y-93497617D01*
X191568658Y-93238847D01*
X191400318Y-93117477D01*
X191236664Y-92984406D01*
X191058939Y-92823401D01*
X190880748Y-92647992D01*
X190715695Y-92471707D01*
X190577385Y-92308075D01*
X190547906Y-92269834D01*
X190480494Y-92183228D01*
X190423531Y-92115496D01*
X190385119Y-92076002D01*
X190374796Y-92069709D01*
X190346357Y-92084525D01*
X190283775Y-92125193D01*
X190195407Y-92186043D01*
X190089614Y-92261405D01*
X190052992Y-92287990D01*
X189924812Y-92380706D01*
X189793500Y-92474394D01*
X189673992Y-92558471D01*
X189581228Y-92622356D01*
X189576811Y-92625334D01*
X189494299Y-92683610D01*
X189432106Y-92732728D01*
X189400864Y-92764122D01*
X189399113Y-92768499D01*
X189416058Y-92812171D01*
X189465245Y-92887175D01*
X189541490Y-92987436D01*
X189639608Y-93106876D01*
X189754417Y-93239417D01*
X189880732Y-93378982D01*
X190013370Y-93519495D01*
X190147146Y-93654879D01*
X190195205Y-93701788D01*
X190590049Y-94046922D01*
X191021285Y-94356404D01*
X191484168Y-94627866D01*
X191973953Y-94858940D01*
X192485894Y-95047258D01*
X193015246Y-95190453D01*
X193287650Y-95244862D01*
X193431367Y-95267686D01*
X193575478Y-95284720D01*
X193732446Y-95296882D01*
X193914736Y-95305087D01*
X194134813Y-95310254D01*
X194187233Y-95311043D01*
X194361482Y-95312894D01*
X194523082Y-95313551D01*
X194662650Y-95313059D01*
X194770799Y-95311464D01*
X194838145Y-95308810D01*
X194848691Y-95307850D01*
X195344610Y-95233449D01*
X195805017Y-95131995D01*
X196241704Y-95000151D01*
X196666462Y-94834585D01*
X196899212Y-94727967D01*
X197385162Y-94464948D01*
X197841849Y-94159266D01*
X198266888Y-93813843D01*
X198657890Y-93431600D01*
X199012471Y-93015458D01*
X199328242Y-92568338D01*
X199602818Y-92093161D01*
X199833810Y-91592850D01*
X200018834Y-91070324D01*
X200087117Y-90826167D01*
X200106641Y-90747165D01*
X200124982Y-90665123D01*
X200143852Y-90570898D01*
X200164964Y-90455348D01*
X200190032Y-90309329D01*
X200220768Y-90123700D01*
X200234590Y-90039031D01*
X200248589Y-89953042D01*
X202627441Y-89953042D01*
X202627441Y-94284168D01*
X203229941Y-94685063D01*
X203388756Y-94790285D01*
X203533285Y-94885181D01*
X203657668Y-94965971D01*
X203756040Y-95028874D01*
X203822540Y-95070111D01*
X203851306Y-95085903D01*
X203851712Y-95085959D01*
X203853543Y-95059900D01*
X203855326Y-94983320D01*
X203857054Y-94858617D01*
X203858719Y-94688187D01*
X203860313Y-94474425D01*
X203861827Y-94219728D01*
X203863255Y-93926493D01*
X203864587Y-93597117D01*
X203865816Y-93233994D01*
X203866935Y-92839522D01*
X203867934Y-92416097D01*
X203868806Y-91966116D01*
X203869543Y-91491975D01*
X203870137Y-90996070D01*
X203870580Y-90480797D01*
X203870864Y-89948554D01*
X203870980Y-89401736D01*
X203870983Y-89304813D01*
X203870983Y-83523667D01*
X201329422Y-83523667D01*
X200891640Y-83523790D01*
X200504142Y-83524181D01*
X200164295Y-83524876D01*
X199869467Y-83525909D01*
X199617025Y-83527314D01*
X199404336Y-83529126D01*
X199228769Y-83531379D01*
X199087690Y-83534109D01*
X198978467Y-83537348D01*
X198898468Y-83541133D01*
X198845060Y-83545497D01*
X198815610Y-83550476D01*
X198807486Y-83556102D01*
X198807768Y-83556740D01*
X198828406Y-83585967D01*
X198876518Y-83651629D01*
X198947761Y-83747878D01*
X199037793Y-83868863D01*
X199142272Y-84008738D01*
X199256854Y-84161652D01*
X199259578Y-84165281D01*
X199691481Y-84740750D01*
X202627441Y-84740750D01*
X202627441Y-88735959D01*
X201439647Y-88735959D01*
X201153617Y-88736053D01*
X200916026Y-88735966D01*
X200722398Y-88735144D01*
X200568256Y-88733033D01*
X200449123Y-88729079D01*
X200360525Y-88722729D01*
X200297983Y-88713427D01*
X200257021Y-88700620D01*
X200233164Y-88683755D01*
X200221935Y-88662276D01*
X200218858Y-88635631D01*
X200219455Y-88603265D01*
X200219733Y-88584983D01*
X200212220Y-88499317D01*
X200191325Y-88373657D01*
X200159517Y-88218500D01*
X200119265Y-88044340D01*
X200073039Y-87861672D01*
X200023306Y-87680990D01*
X199972535Y-87512790D01*
X199954426Y-87457153D01*
X199755546Y-86942787D01*
X199510258Y-86451224D01*
X199221213Y-85985436D01*
X198891062Y-85548398D01*
X198522458Y-85143082D01*
X198118053Y-84772461D01*
X197680497Y-84439508D01*
X197212443Y-84147195D01*
X196823907Y-83947448D01*
X196320677Y-83740491D01*
X195798408Y-83580518D01*
X195262577Y-83468099D01*
X194718663Y-83403807D01*
X194172144Y-83388212D01*
X193628500Y-83421886D01*
G36*
X193876496Y-85977309D02*
X193484143Y-86042489D01*
X193110867Y-86153383D01*
X192751529Y-86311840D01*
X192400989Y-86519710D01*
X192092032Y-86747941D01*
X191997651Y-86829633D01*
X191896691Y-86926248D01*
X191796627Y-87029479D01*
X191704934Y-87131017D01*
X191629085Y-87222554D01*
X191576556Y-87295783D01*
X191554821Y-87342395D01*
X191554629Y-87345260D01*
X191574834Y-87369219D01*
X191630511Y-87418543D01*
X191714253Y-87487588D01*
X191818653Y-87570709D01*
X191936302Y-87662262D01*
X192059795Y-87756603D01*
X192181724Y-87848089D01*
X192294680Y-87931074D01*
X192391258Y-87999915D01*
X192464050Y-88048968D01*
X192505649Y-88072589D01*
X192510857Y-88073875D01*
X192538320Y-88053895D01*
X192583405Y-88003556D01*
X192612962Y-87965342D01*
X192749050Y-87810868D01*
X192925979Y-87657527D01*
X193132263Y-87514323D01*
X193330270Y-87403174D01*
X193633210Y-87280138D01*
X193950544Y-87205630D01*
X194275498Y-87179681D01*
X194601297Y-87202319D01*
X194921168Y-87273576D01*
X195228336Y-87393480D01*
X195231043Y-87394790D01*
X195530386Y-87567611D01*
X195791822Y-87775913D01*
X196013328Y-88016482D01*
X196192884Y-88286104D01*
X196328467Y-88581564D01*
X196418055Y-88899649D01*
X196459627Y-89237145D01*
X196462464Y-89352506D01*
X196439470Y-89695140D01*
X196369474Y-90013952D01*
X196251646Y-90310867D01*
X196085156Y-90587810D01*
X195869176Y-90846705D01*
X195780785Y-90934313D01*
X195556958Y-91123993D01*
X195325090Y-91273326D01*
X195070997Y-91390131D01*
X194792573Y-91479030D01*
X194652296Y-91504981D01*
X194477210Y-91520376D01*
X194284359Y-91525215D01*
X194090787Y-91519497D01*
X193913538Y-91503224D01*
X193779975Y-91479038D01*
X193516531Y-91392417D01*
X193254620Y-91267116D01*
X193007278Y-91111251D01*
X192787543Y-90932940D01*
X192623203Y-90758799D01*
X192549213Y-90674145D01*
X192492098Y-90622024D01*
X192457882Y-90607837D01*
X192455877Y-90608759D01*
X192428745Y-90627500D01*
X192366256Y-90671424D01*
X192276164Y-90735032D01*
X192166224Y-90812821D01*
X192044190Y-90899292D01*
X191917816Y-90988942D01*
X191794857Y-91076270D01*
X191683066Y-91155776D01*
X191590198Y-91221958D01*
X191524007Y-91269315D01*
X191492248Y-91292346D01*
X191491389Y-91293002D01*
X191498949Y-91318224D01*
X191536068Y-91373690D01*
X191596003Y-91451141D01*
X191672014Y-91542315D01*
X191757360Y-91638954D01*
X191845298Y-91732799D01*
X191875025Y-91763039D01*
X192190173Y-92041975D01*
X192536170Y-92278769D01*
X192909645Y-92471642D01*
X193307232Y-92618818D01*
X193664581Y-92707235D01*
X193792933Y-92725982D01*
X193955373Y-92740685D01*
X194137036Y-92750890D01*
X194323057Y-92756142D01*
X194498570Y-92755984D01*
X194648709Y-92749962D01*
X194742858Y-92740267D01*
X195172806Y-92649906D01*
X195574914Y-92514755D01*
X195950586Y-92334127D01*
X196301223Y-92107334D01*
X196628229Y-91833690D01*
X196664933Y-91798654D01*
X196948759Y-91488421D01*
X197189081Y-91151104D01*
X197384834Y-90790989D01*
X197534949Y-90412366D01*
X197638361Y-90019522D01*
X197694003Y-89616746D01*
X197700809Y-89208326D01*
X197657712Y-88798550D01*
X197563645Y-88391707D01*
X197535075Y-88300181D01*
X197405076Y-87958727D01*
X197246959Y-87649004D01*
X197053721Y-87359795D01*
X196818357Y-87079881D01*
X196690994Y-86948145D01*
X196368318Y-86660228D01*
X196029016Y-86422406D01*
X195671647Y-86234082D01*
X195294769Y-86094661D01*
X194896941Y-86003546D01*
X194476722Y-85960140D01*
X194293066Y-85955993D01*
X193876496Y-85977309D01*
X193876496Y-85977309D01*
G37*
X193876496Y-85977309D02*
X193484143Y-86042489D01*
X193110867Y-86153383D01*
X192751529Y-86311840D01*
X192400989Y-86519710D01*
X192092032Y-86747941D01*
X191997651Y-86829633D01*
X191896691Y-86926248D01*
X191796627Y-87029479D01*
X191704934Y-87131017D01*
X191629085Y-87222554D01*
X191576556Y-87295783D01*
X191554821Y-87342395D01*
X191554629Y-87345260D01*
X191574834Y-87369219D01*
X191630511Y-87418543D01*
X191714253Y-87487588D01*
X191818653Y-87570709D01*
X191936302Y-87662262D01*
X192059795Y-87756603D01*
X192181724Y-87848089D01*
X192294680Y-87931074D01*
X192391258Y-87999915D01*
X192464050Y-88048968D01*
X192505649Y-88072589D01*
X192510857Y-88073875D01*
X192538320Y-88053895D01*
X192583405Y-88003556D01*
X192612962Y-87965342D01*
X192749050Y-87810868D01*
X192925979Y-87657527D01*
X193132263Y-87514323D01*
X193330270Y-87403174D01*
X193633210Y-87280138D01*
X193950544Y-87205630D01*
X194275498Y-87179681D01*
X194601297Y-87202319D01*
X194921168Y-87273576D01*
X195228336Y-87393480D01*
X195231043Y-87394790D01*
X195530386Y-87567611D01*
X195791822Y-87775913D01*
X196013328Y-88016482D01*
X196192884Y-88286104D01*
X196328467Y-88581564D01*
X196418055Y-88899649D01*
X196459627Y-89237145D01*
X196462464Y-89352506D01*
X196439470Y-89695140D01*
X196369474Y-90013952D01*
X196251646Y-90310867D01*
X196085156Y-90587810D01*
X195869176Y-90846705D01*
X195780785Y-90934313D01*
X195556958Y-91123993D01*
X195325090Y-91273326D01*
X195070997Y-91390131D01*
X194792573Y-91479030D01*
X194652296Y-91504981D01*
X194477210Y-91520376D01*
X194284359Y-91525215D01*
X194090787Y-91519497D01*
X193913538Y-91503224D01*
X193779975Y-91479038D01*
X193516531Y-91392417D01*
X193254620Y-91267116D01*
X193007278Y-91111251D01*
X192787543Y-90932940D01*
X192623203Y-90758799D01*
X192549213Y-90674145D01*
X192492098Y-90622024D01*
X192457882Y-90607837D01*
X192455877Y-90608759D01*
X192428745Y-90627500D01*
X192366256Y-90671424D01*
X192276164Y-90735032D01*
X192166224Y-90812821D01*
X192044190Y-90899292D01*
X191917816Y-90988942D01*
X191794857Y-91076270D01*
X191683066Y-91155776D01*
X191590198Y-91221958D01*
X191524007Y-91269315D01*
X191492248Y-91292346D01*
X191491389Y-91293002D01*
X191498949Y-91318224D01*
X191536068Y-91373690D01*
X191596003Y-91451141D01*
X191672014Y-91542315D01*
X191757360Y-91638954D01*
X191845298Y-91732799D01*
X191875025Y-91763039D01*
X192190173Y-92041975D01*
X192536170Y-92278769D01*
X192909645Y-92471642D01*
X193307232Y-92618818D01*
X193664581Y-92707235D01*
X193792933Y-92725982D01*
X193955373Y-92740685D01*
X194137036Y-92750890D01*
X194323057Y-92756142D01*
X194498570Y-92755984D01*
X194648709Y-92749962D01*
X194742858Y-92740267D01*
X195172806Y-92649906D01*
X195574914Y-92514755D01*
X195950586Y-92334127D01*
X196301223Y-92107334D01*
X196628229Y-91833690D01*
X196664933Y-91798654D01*
X196948759Y-91488421D01*
X197189081Y-91151104D01*
X197384834Y-90790989D01*
X197534949Y-90412366D01*
X197638361Y-90019522D01*
X197694003Y-89616746D01*
X197700809Y-89208326D01*
X197657712Y-88798550D01*
X197563645Y-88391707D01*
X197535075Y-88300181D01*
X197405076Y-87958727D01*
X197246959Y-87649004D01*
X197053721Y-87359795D01*
X196818357Y-87079881D01*
X196690994Y-86948145D01*
X196368318Y-86660228D01*
X196029016Y-86422406D01*
X195671647Y-86234082D01*
X195294769Y-86094661D01*
X194896941Y-86003546D01*
X194476722Y-85960140D01*
X194293066Y-85955993D01*
X193876496Y-85977309D01*
D15*
X201383900Y-102932500D02*
X203923900Y-102932500D01*
X203923900Y-104712500D02*
X201383900Y-104712500D01*
X203923900Y-104712500D02*
X203923900Y-102932500D01*
X201383900Y-102932500D02*
X201383900Y-104712500D01*
X203415900Y-79374000D02*
X205955900Y-79374000D01*
X205955900Y-81154000D02*
X203415900Y-81154000D01*
X205955900Y-81154000D02*
X205955900Y-79374000D01*
X203415900Y-79374000D02*
X203415900Y-81154000D01*
D16*
X202987233Y-101560381D02*
X202987233Y-102274667D01*
X203034853Y-102417524D01*
X203130091Y-102512762D01*
X203272948Y-102560381D01*
X203368186Y-102560381D01*
X202082471Y-101560381D02*
X202272948Y-101560381D01*
X202368186Y-101608000D01*
X202415805Y-101655619D01*
X202511043Y-101798476D01*
X202558662Y-101988952D01*
X202558662Y-102369905D01*
X202511043Y-102465143D01*
X202463424Y-102512762D01*
X202368186Y-102560381D01*
X202177709Y-102560381D01*
X202082471Y-102512762D01*
X202034852Y-102465143D01*
X201987233Y-102369905D01*
X201987233Y-102131810D01*
X202034852Y-102036571D01*
X202082471Y-101988952D01*
X202177709Y-101941333D01*
X202368186Y-101941333D01*
X202463424Y-101988952D01*
X202511043Y-102036571D01*
X202558662Y-102131810D01*
X205019233Y-81496381D02*
X205019233Y-82210667D01*
X205066853Y-82353524D01*
X205162091Y-82448762D01*
X205304948Y-82496381D01*
X205400186Y-82496381D01*
X204638281Y-81496381D02*
X204019233Y-81496381D01*
X204352567Y-81877333D01*
X204209709Y-81877333D01*
X204114471Y-81924952D01*
X204066852Y-81972571D01*
X204019233Y-82067810D01*
X204019233Y-82305905D01*
X204066852Y-82401143D01*
X204114471Y-82448762D01*
X204209709Y-82496381D01*
X204495424Y-82496381D01*
X204590662Y-82448762D01*
X204638281Y-82401143D01*
M02*
