G04 #@! TF.FileFunction,Soldermask,Bot*
%FSLAX46Y46*%
G04 Gerber Fmt 4.6, Leading zero omitted, Abs format (unit mm)*
G04 Created by KiCad (PCBNEW 4.0.7) date 12/12/18 10:49:55*
%MOMM*%
%LPD*%
G01*
G04 APERTURE LIST*
%ADD10C,0.100000*%
%ADD11C,1.100000*%
%ADD12R,2.100000X2.100000*%
%ADD13O,2.100000X2.100000*%
%ADD14O,1.650000X1.350000*%
%ADD15O,1.400000X1.950000*%
%ADD16R,2.178000X2.178000*%
%ADD17C,2.178000*%
%ADD18C,3.148280*%
%ADD19R,1.370000X1.670000*%
G04 APERTURE END LIST*
D10*
D11*
X158375600Y-101335000D03*
X158375600Y-103135000D03*
X163912800Y-101335000D03*
X163912800Y-103135000D03*
D12*
X179527200Y-100101400D03*
D13*
X176987200Y-100101400D03*
X174447200Y-100101400D03*
X171907200Y-100101400D03*
D14*
X187388400Y-100951500D03*
X192388400Y-100951500D03*
D15*
X186388400Y-103651500D03*
X193388400Y-103651500D03*
D14*
X199988400Y-100951500D03*
X204988400Y-100951500D03*
D15*
X198988400Y-103651500D03*
X205988400Y-103651500D03*
D12*
X179527200Y-102997000D03*
D13*
X176987200Y-102997000D03*
X174447200Y-102997000D03*
X171907200Y-102997000D03*
D16*
X156870400Y-79773780D03*
D17*
X156870400Y-77233780D03*
X159410400Y-79773780D03*
X159410400Y-77233780D03*
X161950400Y-79773780D03*
X161950400Y-77233780D03*
X164490400Y-79773780D03*
X164490400Y-77233780D03*
X167030400Y-79773780D03*
X167030400Y-77233780D03*
X197510400Y-77233780D03*
X200050400Y-77233780D03*
X202590400Y-77233780D03*
X205130400Y-77233780D03*
D18*
X151998680Y-101506020D03*
X151998680Y-78503780D03*
X209999580Y-101506020D03*
X209999580Y-78503780D03*
D19*
X202013900Y-103822500D03*
X203293900Y-103822500D03*
X204045900Y-80264000D03*
X205325900Y-80264000D03*
M02*
