M48
;DRILL file {KiCad 4.0.7} date 12/12/18 10:49:58
;FORMAT={-:-/ absolute / inch / decimal}
FMAT,2
INCH,TZ
T1C0.012
T2C0.016
T3C0.020
T4C0.022
T5C0.031
T6C0.039
T7C0.039
%
G90
G05
M72
T1
X6.0735Y-3.2823
X6.121Y-3.4175
X6.1235Y-3.32
X6.156Y-3.4175
X6.161Y-3.32
X6.191Y-3.4175
X6.1935Y-3.32
X6.2285Y-3.4175
X6.266Y-3.415
X6.301Y-3.4225
X6.3235Y-3.3225
X6.3335Y-3.43
X6.3485Y-3.3225
X6.376Y-3.4325
X6.3785Y-3.3225
X6.411Y-3.4325
X6.4135Y-3.32
X6.436Y-3.3075
X6.521Y-3.2225
X6.5835Y-3.285
X6.601Y-3.265
X6.616Y-3.2925
X6.621Y-3.2475
X6.6435Y-3.045
X6.6485Y-4.0475
X6.666Y-3.03
X6.696Y-3.0175
X6.7285Y-3.015
X6.731Y-3.1125
X6.751Y-3.2675
X6.7535Y-3.3175
X6.761Y-3.015
X6.791Y-3.3
X6.801Y-3.0175
X6.8135Y-3.05
X6.8135Y-3.27
X6.831Y-3.1125
X6.936Y-3.455
X7.038Y-3.743
X7.051Y-3.21
X7.412Y-3.745
X7.706Y-3.9625
X7.736Y-3.4925
X7.79Y-3.265
X8.051Y-3.7875
X8.246Y-3.7775
X8.246Y-3.805
T2
X6.3085Y-3.9975
X6.466Y-3.465
X6.5235Y-3.34
X6.616Y-3.355
X6.616Y-3.955
X6.921Y-3.1825
X6.966Y-3.185
X7.4085Y-3.035
X7.421Y-4.0275
X7.461Y-3.875
X7.53Y-3.263
X7.611Y-3.29
X7.776Y-3.18
X7.921Y-4.0275
X7.928Y-3.779
X8.076Y-3.46
X8.281Y-3.725
T5
X6.176Y-3.0407
X6.176Y-3.1407
X6.576Y-3.0407
X6.576Y-3.1407
X7.776Y-3.0407
X7.876Y-3.0407
X7.976Y-3.0407
X8.076Y-3.0407
T6
X6.276Y-3.0407
X6.276Y-3.1407
X6.376Y-3.0407
X6.376Y-3.1407
X6.476Y-3.0407
X6.476Y-3.1407
T7
X6.768Y-3.941
X6.768Y-4.055
X6.868Y-3.941
X6.868Y-4.055
X6.968Y-3.941
X6.968Y-4.055
X7.068Y-3.941
X7.068Y-4.055
T3
X7.3381Y-4.0936G85X7.3381Y-4.068
G05
X7.6137Y-4.0936G85X7.6137Y-4.068
G05
X7.8342Y-4.0936G85X7.8342Y-4.068
G05
X8.1098Y-4.0936G85X8.1098Y-4.068
G05
T4
X7.3716Y-3.9745G85X7.3834Y-3.9745
G05
X7.5684Y-3.9745G85X7.5803Y-3.9745
G05
X7.8677Y-3.9745G85X7.8795Y-3.9745
G05
X8.0645Y-3.9745G85X8.0763Y-3.9745
G05
T0
M30
